/* XPM */
static char * nano_menu_xpm[] = {
"32 32 244 2",
"  	c None",
". 	c #E5E5E5",
"+ 	c #AAE8E8",
"@ 	c #A4E8E8",
"# 	c #9BDADA",
"$ 	c #AEAEAE",
"% 	c #98E8E8",
"& 	c #D5D5D5",
"* 	c #8ECDCD",
"= 	c #8AA9A9",
"- 	c #97D6D6",
"; 	c #DFDFDF",
"> 	c #77E2E2",
", 	c #D3D3D3",
"' 	c #85C4C4",
") 	c #6C8B8B",
"! 	c #505050",
"~ 	c #112B2B",
"{ 	c #060606",
"] 	c #070707",
"^ 	c #BCBCBC",
"/ 	c #85F0F0",
"( 	c #DCDCDC",
"_ 	c #6CAAAA",
": 	c #515151",
"< 	c #121212",
"[ 	c #535353",
"} 	c #A3E2E2",
"| 	c #B3BABA",
"1 	c #3E3E3E",
"2 	c #0F0F0F",
"3 	c #010101",
"4 	c #0C0C0C",
"5 	c #0E0E0E",
"6 	c #181818",
"7 	c #A8E6E6",
"8 	c #D0E7E7",
"9 	c #AEECEC",
"0 	c #9E9E9E",
"a 	c #424242",
"b 	c #131313",
"c 	c #141414",
"d 	c #365555",
"e 	c #E3E3E3",
"f 	c #A0B8B8",
"g 	c #222222",
"h 	c #101010",
"i 	c #080808",
"j 	c #2D4C4C",
"k 	c #D7E7E7",
"l 	c #A3D4D4",
"m 	c #5D5D5D",
"n 	c #282828",
"o 	c #212121",
"p 	c #2D2D2D",
"q 	c #323232",
"r 	c #252525",
"s 	c #1B1B1B",
"t 	c #1C1C1C",
"u 	c #232323",
"v 	c #292929",
"w 	c #A2C1C1",
"x 	c #89EFEF",
"y 	c #ECECEC",
"z 	c #8FD3D3",
"A 	c #A1B3B3",
"B 	c #686868",
"C 	c #747474",
"D 	c #7FB7B7",
"E 	c #494949",
"F 	c #3C3C3C",
"G 	c #5B6D6D",
"H 	c #B8B8B8",
"I 	c #93DCDC",
"J 	c #A4ECEC",
"K 	c #BECFCF",
"L 	c #696969",
"M 	c #2E2E2E",
"N 	c #333333",
"O 	c #353535",
"P 	c #3B3B3B",
"Q 	c #93B2B2",
"R 	c #C5E9E9",
"S 	c #56F5F5",
"T 	c #828282",
"U 	c #262626",
"V 	c #525252",
"W 	c #344A4A",
"X 	c #6C6C6C",
"Y 	c #84C3C3",
"Z 	c #B5EAEA",
"` 	c #A1EDED",
" .	c #CBDEDE",
"..	c #3D3D3D",
"+.	c #484848",
"@.	c #4C4C4C",
"#.	c #B6B6B6",
"$.	c #94EEEE",
"%.	c #CEE8E8",
"&.	c #2F2F2F",
"*.	c #799898",
"=.	c #9EE3E3",
"-.	c #BEE9E9",
";.	c #5D6868",
">.	c #4E4E4E",
",.	c #555555",
"'.	c #606060",
").	c #A2E1E1",
"!.	c #C0E9E9",
"~.	c #343434",
"{.	c #A3A3A3",
"].	c #A7ECEC",
"^.	c #507070",
"/.	c #5B5B5B",
"(.	c #626262",
"_.	c #587777",
":.	c #E1E1E1",
"<.	c #D1D1D1",
"[.	c #1D1D1D",
"}.	c #393939",
"|.	c #6B6B6B",
"1.	c #AFEEEE",
"2.	c #E0E0E0",
"3.	c #495D5D",
"4.	c #666666",
"5.	c #749393",
"6.	c #AAAAAA",
"7.	c #191919",
"8.	c #6B8B8B",
"9.	c #EBEBEB",
"0.	c #90CFCF",
"a.	c #5A5A5A",
"b.	c #A8A8A8",
"c.	c #B1EBEB",
"d.	c #74F2F2",
"e.	c #808080",
"f.	c #303030",
"g.	c #88A7A7",
"h.	c #B0EBEB",
"i.	c #89A6A6",
"j.	c #636363",
"k.	c #9CBBBB",
"l.	c #4C7D7D",
"m.	c #404040",
"n.	c #3D5C5C",
"o.	c #C9E8E8",
"p.	c #202020",
"q.	c #363636",
"r.	c #BBDCDC",
"s.	c #E2E2E2",
"t.	c #364646",
"u.	c #436363",
"v.	c #C7E8E8",
"w.	c #CECECE",
"x.	c #0D0D0D",
"y.	c #324444",
"z.	c #CEECEC",
"A.	c #8FCECE",
"B.	c #2C2C2C",
"C.	c #7A7A7A",
"D.	c #C6E8E8",
"E.	c #9D9D9D",
"F.	c #090909",
"G.	c #596767",
"H.	c #C1EDED",
"I.	c #799E9E",
"J.	c #87A6A6",
"K.	c #A2EDED",
"L.	c #707070",
"M.	c #2A2A2A",
"N.	c #878787",
"O.	c #B7EAEA",
"P.	c #526C6C",
"Q.	c #C2C2C2",
"R.	c #364A4A",
"S.	c #8CABAB",
"T.	c #9BEDED",
"U.	c #ADEBEB",
"V.	c #242424",
"W.	c #273B3B",
"X.	c #0F1919",
"Y.	c #111111",
"Z.	c #CCCCCC",
"`.	c #B8CECE",
" +	c #355F5F",
".+	c #AAC0C0",
"++	c #1E1E1E",
"@+	c #2A4040",
"#+	c #BBE8E8",
"$+	c #71A7A7",
"%+	c #649C9C",
"&+	c #555E5E",
"*+	c #D2E7E7",
"=+	c #637575",
"-+	c #2B2B2B",
";+	c #89A0A0",
">+	c #5E6D6D",
",+	c #7B7B7B",
"'+	c #8DEFEF",
")+	c #374F4F",
"!+	c #7CA3A3",
"~+	c #294242",
"{+	c #88A1A1",
"]+	c #CCE8E8",
"^+	c #303737",
"/+	c #526B6B",
"(+	c #AAE0E0",
"_+	c #9EEDED",
":+	c #DDDDDD",
"<+	c #0B1111",
"[+	c #97BDBD",
"}+	c #DAE6E6",
"|+	c #284242",
"1+	c #414747",
"2+	c #6B7777",
"3+	c #87A2A2",
"4+	c #89B0B0",
"5+	c #7B9595",
"6+	c #A4A4A4",
"7+	c #B4BDBD",
"8+	c #1F1F1F",
"9+	c #ACE2E2",
"0+	c #648484",
"a+	c #747979",
"b+	c #7A7F7F",
"c+	c #979C9C",
"d+	c #676767",
"e+	c #737373",
"f+	c #757575",
"g+	c #629B9B",
"h+	c #DCE6E6",
"i+	c #DEE2E2",
"j+	c #949494",
"k+	c #646464",
"l+	c #395555",
"m+	c #8E8E8E",
"n+	c #B3B3B3",
"o+	c #ABE4E4",
"p+	c #98E9E9",
"q+	c #7CF1F1",
"r+	c #DCE7E7",
"s+	c #A9E6E6",
"t+	c #9BE7E7",
"u+	c #79EEEE",
"                                                                ",
"                                                                ",
"                                                                ",
"                                                                ",
"                . + @ # $             % & * = - ;               ",
"          > , ' ) ! ~ { ] ^     / ( _ : < ] < < [ }             ",
"        | 1 2 3 3 { 4 5 6 7 8 9 0 a 2 5 b c 5 c c d e           ",
"        f g c h i 4 c c j k l m n o p q r s s t u v w           ",
"        x y z A B c s o C D E F G H I J K L M N O P Q R         ",
"              S T s U M V W X Y Z       `  .P ..+.@.#.$.        ",
"              %.m U &...! *.=..           -.;.>.,.'.).          ",
"              !.~.U O >.{.].              . ^./.(._.:.          ",
"              <.[.&.}.|.1.                2.3.'.4.5.%.          ",
"              6.7.p }.8.9.                0.[ a.4.b.c.          ",
"            d.e.7.f.}.g.h.              . i.! V j.k.h.          ",
"            R [ 7.U }.H                 . l.m.E n.(             ",
"            o.p.7.U q.r.                s.t.N F u.v.            ",
"            w.x.7.U y.z.                A.B.N N C.D.            ",
"            E.F.7.U G.H.              . I.u v p J.K.            ",
"          . L.4 7.M.N.O.              . P.t p.p Q.              ",
"          ].R.4 7.p S.T.              U.1 7.V.W.e               ",
"          . X.Y.7.N Z.                `.[.7.g  +.               ",
"          .+x.b ++@+#+              . $+s ++p.T $.              ",
"        . %+i 7.p.&+*+              . =+7.p.-+;+R               ",
"        . >+4 7.-+,+'+              U.)+7.p.n !+.               ",
"        . ~+< 7.p {+]+              O.^+7.p.q /+(+. _+. :+      ",
"        Z <+b 7.}.[+                }+|+7.U N 1+2+3+4+5+6+      ",
"        7+4 x.8+N 9+                . 0+7.U N @.4.a+b+c+w       ",
"        ^ d+e+f+g+h+                  i+j+k+l+L m+n+o+p+        ",
"          q+q+. r+                      q+s.s+t+u+.             ",
"                                                                ",
"                                                                "};
